<?xml version="1.0" encoding="UTF-8" standalone="no"?>
<!-- Created with Inkscape (http://www.inkscape.org/) -->

<svg
   xmlns:dc="http://purl.org/dc/elements/1.1/"
   xmlns:cc="http://creativecommons.org/ns#"
   xmlns:rdf="http://www.w3.org/1999/02/22-rdf-syntax-ns#"
   xmlns:svg="http://www.w3.org/2000/svg"
   xmlns="http://www.w3.org/2000/svg"
   xmlns:sodipodi="http://sodipodi.sourceforge.net/DTD/sodipodi-0.dtd"
   xmlns:inkscape="http://www.inkscape.org/namespaces/inkscape"
   width="7.3377776mm"
   height="7.3377776mm"
   viewBox="0 0 25.999999 25.999999"
   id="svg135903"
   version="1.1"
   inkscape:version="0.91 r13725"
   sodipodi:docname="search.svg">
  <defs
     id="defs135905">
    <symbol
       id="symbol140836">
      <title
         id="title140838">Pageview</title>
      <path
         d="m 22,16 c -3.31,0 -6,2.69 -6,6 0,3.31 2.69,6 6,6 3.31,0 6,-2.69 6,-6 0,-3.31 -2.69,-6 -6,-6 z M 38,6 10,6 C 7.79,6 6,7.79 6,10 l 0,28 c 0,2.21 1.79,4 4,4 l 28,0 c 2.21,0 4,-1.79 4,-4 L 42,10 C 42,7.79 40.21,6 38,6 Z M 35.17,38 27.51,30.34 C 25.93,31.38 24.04,32 22,32 16.48,32 12,27.52 12,22 c 0,-5.52 4.48,-10 10,-10 5.52,0 10,4.48 10,10 0,2.04 -0.62,3.93 -1.66,5.51 L 38,35.17 35.17,38 Z"
         style="stroke:none"
         id="path140840"
         inkscape:connector-curvature="0" />
    </symbol>
  </defs>
  <sodipodi:namedview
     id="base"
     pagecolor="#ffffff"
     bordercolor="#666666"
     borderopacity="1.0"
     inkscape:pageopacity="0.0"
     inkscape:pageshadow="2"
     inkscape:zoom="3.959798"
     inkscape:cx="-46.158356"
     inkscape:cy="-9.556221"
     inkscape:document-units="px"
     inkscape:current-layer="use154637"
     showgrid="false"
     fit-margin-top="0"
     fit-margin-left="0"
     fit-margin-right="0"
     fit-margin-bottom="0"
     inkscape:window-width="2560"
     inkscape:window-height="1391"
     inkscape:window-x="1280"
     inkscape:window-y="1"
     inkscape:window-maximized="1" />
  <metadata
     id="metadata135908">
    <rdf:RDF>
      <cc:Work
         rdf:about="">
        <dc:format>image/svg+xml</dc:format>
        <dc:type
           rdf:resource="http://purl.org/dc/dcmitype/StillImage" />
        <dc:title></dc:title>
      </cc:Work>
    </rdf:RDF>
  </metadata>
  <g
     inkscape:label="Capa 1"
     inkscape:groupmode="layer"
     id="layer1"
     transform="translate(-310.85714,-414.64792)">
    <g
       id="use154637"
       style="fill:#000000;stroke:#000000"
       transform="translate(298.85714,402.64792)">
      <title
         id="title154653">Pageview</title>
      <path
         style="fill:#4d4e53;fill-opacity:1;stroke:none"
         d="M 16,6 C 10.48,6 6,10.48 6,16 c 0,5.52 4.48,10 10,10 2.04,0 3.929766,-0.620156 5.509766,-1.660156 L 29.169922,32 32,29.169922 24.339844,21.509766 C 25.379844,19.929766 26,18.04 26,16 26,10.48 21.52,6 16,6 Z m 0,4 c 3.31,0 6,2.69 6,6 0,3.31 -2.69,6 -6,6 -3.31,0 -6,-2.69 -6,-6 0,-3.31 2.69,-6 6,-6 z"
         transform="translate(6,6)"
         id="path154655"
         inkscape:connector-curvature="0" />
    </g>
  </g>
</svg>
