<?xml version="1.0" encoding="UTF-8" standalone="no"?>
<!-- Created with Inkscape (http://www.inkscape.org/) -->

<svg
   xmlns:dc="http://purl.org/dc/elements/1.1/"
   xmlns:cc="http://creativecommons.org/ns#"
   xmlns:rdf="http://www.w3.org/1999/02/22-rdf-syntax-ns#"
   xmlns:svg="http://www.w3.org/2000/svg"
   xmlns="http://www.w3.org/2000/svg"
   xmlns:sodipodi="http://sodipodi.sourceforge.net/DTD/sodipodi-0.dtd"
   xmlns:inkscape="http://www.inkscape.org/namespaces/inkscape"
   width="9.0311108mm"
   height="11.288889mm"
   viewBox="0 0 31.999998 40"
   id="svg2"
   version="1.1"
   inkscape:version="0.91 r13725"
   sodipodi:docname="fresh.svg">
  <defs
     id="defs4">
    <symbol
       id="symbol10189">
      <title
         id="title10191">Signal Cellular Connected No Internet 0 Bar</title>
      <path
         d="m 40,44 4,0 0,-4 -4,0 0,4 z m 0,-24 0,16 4,0 0,-16 -4,0 z"
         style="stroke:none"
         id="path10193"
         inkscape:connector-curvature="0" />
      <path
         d="M 44,16 44,4 4,44 36,44 36,16 Z"
         style="fill-opacity:0.3;stroke:none"
         id="path10195"
         inkscape:connector-curvature="0" />
    </symbol>
    <symbol
       id="symbol9481">
      <title
         id="title9483">Live Help</title>
      <path
         d="M 38,4 10,4 C 7.79,4 6,5.79 6,8 l 0,28 c 0,2.21 1.79,4 4,4 l 8,0 6,6 6,-6 8,0 c 2.21,0 4,-1.79 4,-4 L 42,8 C 42,5.79 40.21,4 38,4 Z m -12,32 -4,0 0,-4 4,0 0,4 z m 4.13,-15.49 -1.79,1.84 C 26.9,23.79 26,25 26,28 l -4,0 0,-1 c 0,-2.21 0.9,-4.21 2.34,-5.66 l 2.49,-2.52 C 27.55,18.1 28,17.1 28,16 c 0,-2.21 -1.79,-4 -4,-4 -2.21,0 -4,1.79 -4,4 l -4,0 c 0,-4.42 3.58,-8 8,-8 4.42,0 8,3.58 8,8 0,1.76 -0.71,3.35 -1.87,4.51 z"
         style="stroke:none"
         id="path9485"
         inkscape:connector-curvature="0" />
    </symbol>
    <symbol
       id="symbol9265">
      <title
         id="title9267">Replay</title>
      <path
         d="m 24,10 0,-8 -10,10 10,10 0,-8 c 6.63,0 12,5.37 12,12 0,6.63 -5.37,12 -12,12 -6.63,0 -12,-5.37 -12,-12 l -4,0 c 0,8.84 7.16,16 16,16 8.84,0 16,-7.16 16,-16 0,-8.84 -7.16,-16 -16,-16 z"
         style="stroke:none"
         id="path9269"
         inkscape:connector-curvature="0" />
    </symbol>
  </defs>
  <sodipodi:namedview
     id="base"
     pagecolor="#ffffff"
     bordercolor="#666666"
     borderopacity="1.0"
     inkscape:pageopacity="0.0"
     inkscape:pageshadow="2"
     inkscape:zoom="3.959798"
     inkscape:cx="8.243748"
     inkscape:cy="-24.742985"
     inkscape:document-units="px"
     inkscape:current-layer="use24919"
     showgrid="false"
     inkscape:window-width="2560"
     inkscape:window-height="1391"
     inkscape:window-x="1280"
     inkscape:window-y="1"
     inkscape:window-maximized="1"
     fit-margin-top="0"
     fit-margin-left="0"
     fit-margin-right="0"
     fit-margin-bottom="0" />
  <metadata
     id="metadata7">
    <rdf:RDF>
      <cc:Work
         rdf:about="">
        <dc:format>image/svg+xml</dc:format>
        <dc:type
           rdf:resource="http://purl.org/dc/dcmitype/StillImage" />
        <dc:title></dc:title>
      </cc:Work>
    </rdf:RDF>
  </metadata>
  <g
     inkscape:label="Capa 1"
     inkscape:groupmode="layer"
     id="layer1"
     transform="translate(-353.20906,-87.328207)">
    <g
       id="use24725"
       style="fill:#000000;stroke:#000000"
       transform="translate(344.57143,81.219343)">
      <title
         id="title24794">Signal Cellular Connected No Internet 0 Bar</title>
      <g
         id="use24919"
         style="fill:#000000;stroke:#000000"
         transform="translate(-0.3020255,0.56471618)">
        <title
           id="title24935">Live Help</title>
        <g
           id="use28861"
           style="fill:#000000;stroke:#000000"
           transform="translate(0.93965575,3.5441483)">
          <title
             id="title28935">Replay</title>
          <path
             inkscape:connector-curvature="0"
             id="path28937"
             style="stroke:none"
             d="m 24,10 0,-8 -10,10 10,10 0,-8 c 6.63,0 12,5.37 12,12 0,6.63 -5.37,12 -12,12 -6.63,0 -12,-5.37 -12,-12 l -4,0 c 0,8.84 7.16,16 16,16 8.84,0 16,-7.16 16,-16 0,-8.84 -7.16,-16 -16,-16 z" />
        </g>
      </g>
    </g>
  </g>
</svg>
