<?xml version="1.0" encoding="UTF-8" standalone="no"?>
<!-- Created with Inkscape (http://www.inkscape.org/) -->

<svg
   xmlns:dc="http://purl.org/dc/elements/1.1/"
   xmlns:cc="http://creativecommons.org/ns#"
   xmlns:rdf="http://www.w3.org/1999/02/22-rdf-syntax-ns#"
   xmlns:svg="http://www.w3.org/2000/svg"
   xmlns="http://www.w3.org/2000/svg"
   xmlns:sodipodi="http://sodipodi.sourceforge.net/DTD/sodipodi-0.dtd"
   xmlns:inkscape="http://www.inkscape.org/namespaces/inkscape"
   width="13.117689mm"
   height="13.11769mm"
   viewBox="0 0 46.480001 46.480005"
   id="svg2"
   version="1.1"
   inkscape:version="0.91 r13725"
   sodipodi:docname="status.svg">
  <defs
     id="defs4">
    <symbol
       id="symbol8287">
      <title
         id="title8289">Done All</title>
      <path
         d="M 36,14 33.17,11.17 20.49,23.86 23.32,26.69 36,14 Z M 44.49,11.17 23.31,32.34 14.97,24 12.14,26.83 23.31,38 47.31,14 44.49,11.17 Z M 0.83,26.83 12,38 14.83,35.17 3.66,24 0.83,26.83 Z"
         style="stroke:none"
         id="path8291"
         inkscape:connector-curvature="0" />
    </symbol>
  </defs>
  <sodipodi:namedview
     id="base"
     pagecolor="#ffffff"
     bordercolor="#666666"
     borderopacity="1.0"
     inkscape:pageopacity="0.0"
     inkscape:pageshadow="2"
     inkscape:zoom="2.8"
     inkscape:cx="-29.746755"
     inkscape:cy="32.385318"
     inkscape:document-units="px"
     inkscape:current-layer="use24112"
     showgrid="false"
     fit-margin-top="0"
     fit-margin-left="0"
     fit-margin-right="0"
     fit-margin-bottom="0"
     inkscape:window-width="1280"
     inkscape:window-height="751"
     inkscape:window-x="0"
     inkscape:window-y="1"
     inkscape:window-maximized="1" />
  <metadata
     id="metadata7">
    <rdf:RDF>
      <cc:Work
         rdf:about="">
        <dc:format>image/svg+xml</dc:format>
        <dc:type
           rdf:resource="http://purl.org/dc/dcmitype/StillImage" />
        <dc:title></dc:title>
      </cc:Work>
    </rdf:RDF>
  </metadata>
  <g
     inkscape:label="Capa 1"
     inkscape:groupmode="layer"
     id="layer1"
     transform="translate(-336.76,-322.15435)">
    <g
       id="use24112"
       style="fill:#000000;stroke:#000000"
       transform="translate(335.93,320.80935)">
      <title
         id="title24128">Done All</title>
      <path
         inkscape:connector-curvature="0"
         id="path24130"
         style="stroke:none;fill:#0096dd;fill-opacity:1"
         d="M 36,14 33.17,11.17 20.49,23.86 23.32,26.69 36,14 Z M 44.49,11.17 23.31,32.34 14.97,24 12.14,26.83 23.31,38 47.31,14 44.49,11.17 Z M 0.83,26.83 12,38 14.83,35.17 3.66,24 0.83,26.83 Z" />
    </g>
  </g>
</svg>
