<?xml version="1.0" encoding="UTF-8" standalone="no"?>
<!-- Created with Inkscape (http://www.inkscape.org/) -->

<svg
   xmlns:dc="http://purl.org/dc/elements/1.1/"
   xmlns:cc="http://creativecommons.org/ns#"
   xmlns:rdf="http://www.w3.org/1999/02/22-rdf-syntax-ns#"
   xmlns:svg="http://www.w3.org/2000/svg"
   xmlns="http://www.w3.org/2000/svg"
   xmlns:sodipodi="http://sodipodi.sourceforge.net/DTD/sodipodi-0.dtd"
   xmlns:inkscape="http://www.inkscape.org/namespaces/inkscape"
   id="svg85916"
   version="1.1"
   inkscape:version="0.91 r13725"
   width="1997.076"
   height="1999.7971"
   viewBox="0 0 1997.076 1999.7971"
   sodipodi:docname="tool.svg">
  <metadata
     id="metadata85922">
    <rdf:RDF>
      <cc:Work
         rdf:about="">
        <dc:format>image/svg+xml</dc:format>
        <dc:type
           rdf:resource="http://purl.org/dc/dcmitype/StillImage" />
        <dc:title></dc:title>
      </cc:Work>
    </rdf:RDF>
  </metadata>
  <defs
     id="defs85920" />
  <sodipodi:namedview
     pagecolor="#ffffff"
     bordercolor="#666666"
     borderopacity="1"
     objecttolerance="10"
     gridtolerance="10"
     guidetolerance="10"
     inkscape:pageopacity="0"
     inkscape:pageshadow="2"
     inkscape:window-width="1280"
     inkscape:window-height="751"
     id="namedview85918"
     showgrid="false"
     fit-margin-top="0"
     fit-margin-left="0"
     fit-margin-right="0"
     fit-margin-bottom="0"
     inkscape:zoom="0.3025"
     inkscape:cx="998.57604"
     inkscape:cy="999.85598"
     inkscape:window-x="0"
     inkscape:window-y="1"
     inkscape:window-maximized="1"
     inkscape:current-layer="svg85916" />
  <path
     style="fill:#0078fa;fill-opacity:1"
     d="M 64.195917,1953.4548 237.68764,1669.4411 361.07611,1603.5336 899.64811,1045.4411 790.26091,932.01628 1692.076,2.1570312e-5 1997.076,315.99164 1096.2607,1248.1096 984.79001,1136.1548 l -537.7139,555.065 -64.3258,128.3667 -275.14589,180.2106 z m 1607.380083,41.969 c -44.0269,-5.4527 -84.033,-24.8694 -115.6731,-56.1411 -151.6482,-158.2637 -320.3798,-329.4303 -480.6048,-498.002 l -2.7779,-3.0072 290.8549,-287.4911 c 0,0 327.6555,331.2605 483.7371,502.7016 22.3741,26.7819 38.3407,60.8583 45.0656,96.1808 3.1998,16.8068 4.3451,45.8325 2.4604,62.3551 -9.2926,81.4636 -62.6788,149.2953 -137.1785,174.2967 -28.7241,9.6395 -57.2023,12.6594 -85.8837,9.1072 z M 558.07611,908.06748 c -101.2064,26.1802 -217.92397,20.9029 -298.18705,-12.676 C 174.24137,858.16648 100.72588,790.69549 55.100727,707.4411 26.415437,655.09768 9.5011465,601.5491 1.8769565,538.9411 c -2.52041997,-20.69709 -2.49768997,-77.18576 0.0396,-98.49563 2.78459,-23.38656 10.2542405,-63.43245 12.1936205,-65.37183 0.27456,-0.27457 0.87597,-0.0792 1.33646,0.43413 80.19036,82.59321 240.134543,248.20872 240.134543,248.20872 l 236.35249,-65.39787 63.5941,-244.87752 c 0,0 -150.1089,-153.98236 -239.78547,-249.557298 1.62499,-0.89006 25.13987,-6.24607 36.83377,-8.38967 36.3111,-6.65615 79.1626,-8.14288 117,-4.0593 142.8591,15.41797 267.7837,103.530108 334.0405,235.606298 25.2121,50.25769 40.35774,104.14718 46.06404,163.89997 1.7398,18.21872 1.4719,62.18545 -0.4967,81.5 -2.6958,26.44884 -10.933,70.96933 -13.6742,73.90606 -14.70354,0.0694 54.3607,48.3605 50.9738,60.29133 l -207.40744,221.83609 108.2768,113.43032 -69.6059,72.0144 c -53.2022,-55.3387 -105.7868,-111.20662 -159.6709,-165.85182 z"
     id="path85926"
     inkscape:connector-curvature="0"
     sodipodi:nodetypes="cccccccccccccscccccssssccsssccccccssssscccccc" />
</svg>
